<svg width="37" height="36" viewBox="0 0 37 36" fill="none" xmlns="http://www.w3.org/2000/svg">
<path d="M12.5553 17.955C12.5553 14.66 15.2274 11.9881 18.5244 11.9881C21.8214 11.9881 24.4949 14.66 24.4949 17.955C24.4949 21.2501 21.8214 23.9219 18.5244 23.9219C15.2274 23.9219 12.5553 21.2501 12.5553 17.955ZM9.32781 17.955C9.32781 23.0312 13.4451 27.1461 18.5244 27.1461C23.6037 27.1461 27.721 23.0312 27.721 17.955C27.721 12.8788 23.6037 8.76396 18.5244 8.76396C13.4451 8.76396 9.32781 12.8788 9.32781 17.955ZM25.9358 8.39953C25.9357 8.82435 26.0615 9.23968 26.2976 9.59299C26.5336 9.94631 26.8691 10.2217 27.2618 10.3845C27.6544 10.5472 28.0865 10.5899 28.5035 10.5072C28.9204 10.4245 29.3034 10.2201 29.6041 9.9198C29.9048 9.61953 30.1097 9.23689 30.1928 8.82027C30.2759 8.40365 30.2335 7.97176 30.071 7.57922C29.9084 7.18667 29.6331 6.8511 29.2798 6.61495C28.9264 6.37879 28.511 6.25265 28.0859 6.25248H28.085C27.5153 6.25275 26.9689 6.47901 26.5659 6.88158C26.1629 7.28415 25.9363 7.8301 25.9358 8.39953ZM11.2887 32.5246C9.54259 32.4451 8.5935 32.1544 7.96278 31.9089C7.1266 31.5835 6.52998 31.196 5.9027 30.57C5.27542 29.9439 4.88713 29.3483 4.56303 28.5126C4.31717 27.8825 4.02631 26.9337 3.94693 25.1886C3.8601 23.3019 3.84277 22.7351 3.84277 17.9552C3.84277 13.1752 3.86153 12.61 3.94693 10.7217C4.02645 8.9766 4.31946 8.02966 4.56303 7.39775C4.88857 6.56207 5.27628 5.96581 5.9027 5.3389C6.52912 4.712 7.12517 4.32394 7.96278 4.00004C8.59321 3.75432 9.54259 3.46363 11.2887 3.3843C13.1766 3.29753 13.7437 3.2802 18.5244 3.2802C23.3051 3.2802 23.8727 3.29896 25.7622 3.3843C27.5083 3.46378 28.4558 3.75661 29.0881 4.00004C29.9243 4.32394 30.5209 4.71286 31.1482 5.3389C31.7755 5.96495 32.1623 6.56207 32.4879 7.39775C32.7337 8.0278 33.0246 8.9766 33.104 10.7217C33.1908 12.61 33.2081 13.1752 33.2081 17.9552C33.2081 22.7351 33.1908 23.3003 33.104 25.1886C33.0245 26.9337 32.7322 27.8822 32.4879 28.5126C32.1623 29.3483 31.7746 29.9445 31.1482 30.57C30.5218 31.1955 29.9243 31.5835 29.0881 31.9089C28.4577 32.1546 27.5083 32.4453 25.7622 32.5246C23.8743 32.6114 23.3072 32.6287 18.5244 32.6287C13.7416 32.6287 13.176 32.6114 11.2887 32.5246ZM11.1404 0.164154C9.23382 0.250929 7.93097 0.553069 6.79319 0.995538C5.61485 1.45247 4.61734 2.06548 3.62054 3.06011C2.62374 4.05474 2.01193 5.05323 1.55473 6.23086C1.11199 7.36868 0.809671 8.67003 0.722843 10.5755C0.634582 12.484 0.61438 13.0942 0.61438 17.955C0.61438 22.8159 0.634582 23.426 0.722843 25.3345C0.809671 27.2402 1.11199 28.5414 1.55473 29.6792C2.01193 30.8561 2.62388 31.8557 3.62054 32.8499C4.61719 33.8441 5.61485 34.4563 6.79319 34.9145C7.93312 35.357 9.23382 35.6591 11.1404 35.7459C13.0511 35.8327 13.6606 35.8543 18.5244 35.8543C23.3882 35.8543 23.9987 35.8341 25.9083 35.7459C27.8151 35.6591 29.1171 35.357 30.2556 34.9145C31.4332 34.4563 32.4314 33.8446 33.4282 32.8499C34.425 31.8553 35.0355 30.8561 35.494 29.6792C35.9368 28.5414 36.2405 27.24 36.3259 25.3345C36.4127 23.4246 36.4329 22.8159 36.4329 17.955C36.4329 13.0942 36.4127 12.484 36.3259 10.5755C36.2391 8.66988 35.9368 7.36796 35.494 6.23086C35.0355 5.05395 34.4234 4.05631 33.4282 3.06011C32.433 2.06391 31.4332 1.45247 30.257 0.995538C29.1171 0.553069 27.8149 0.249497 25.9097 0.164154C24.0001 0.0773779 23.3896 0.0557556 18.5258 0.0557556C13.662 0.0557556 13.0511 0.075946 11.1404 0.164154Z" fill="url(#paint0_radial_108_201)"/>
<path d="M12.5553 17.955C12.5553 14.66 15.2274 11.9881 18.5244 11.9881C21.8214 11.9881 24.4949 14.66 24.4949 17.955C24.4949 21.2501 21.8214 23.9219 18.5244 23.9219C15.2274 23.9219 12.5553 21.2501 12.5553 17.955ZM9.32781 17.955C9.32781 23.0312 13.4451 27.1461 18.5244 27.1461C23.6037 27.1461 27.721 23.0312 27.721 17.955C27.721 12.8788 23.6037 8.76396 18.5244 8.76396C13.4451 8.76396 9.32781 12.8788 9.32781 17.955ZM25.9358 8.39953C25.9357 8.82435 26.0615 9.23968 26.2976 9.59299C26.5336 9.94631 26.8691 10.2217 27.2618 10.3845C27.6544 10.5472 28.0865 10.5899 28.5035 10.5072C28.9204 10.4245 29.3034 10.2201 29.6041 9.9198C29.9048 9.61953 30.1097 9.23689 30.1928 8.82027C30.2759 8.40365 30.2335 7.97176 30.071 7.57922C29.9084 7.18667 29.6331 6.8511 29.2798 6.61495C28.9264 6.37879 28.511 6.25265 28.0859 6.25248H28.085C27.5153 6.25275 26.9689 6.47901 26.5659 6.88158C26.1629 7.28415 25.9363 7.8301 25.9358 8.39953ZM11.2887 32.5246C9.54259 32.4451 8.5935 32.1544 7.96278 31.9089C7.1266 31.5835 6.52998 31.196 5.9027 30.57C5.27542 29.9439 4.88713 29.3483 4.56303 28.5126C4.31717 27.8825 4.02631 26.9337 3.94693 25.1886C3.8601 23.3019 3.84277 22.7351 3.84277 17.9552C3.84277 13.1752 3.86153 12.61 3.94693 10.7217C4.02645 8.9766 4.31946 8.02966 4.56303 7.39775C4.88857 6.56207 5.27628 5.96581 5.9027 5.3389C6.52912 4.712 7.12517 4.32394 7.96278 4.00004C8.59321 3.75432 9.54259 3.46363 11.2887 3.3843C13.1766 3.29753 13.7437 3.2802 18.5244 3.2802C23.3051 3.2802 23.8727 3.29896 25.7622 3.3843C27.5083 3.46378 28.4558 3.75661 29.0881 4.00004C29.9243 4.32394 30.5209 4.71286 31.1482 5.3389C31.7755 5.96495 32.1623 6.56207 32.4879 7.39775C32.7337 8.0278 33.0246 8.9766 33.104 10.7217C33.1908 12.61 33.2081 13.1752 33.2081 17.9552C33.2081 22.7351 33.1908 23.3003 33.104 25.1886C33.0245 26.9337 32.7322 27.8822 32.4879 28.5126C32.1623 29.3483 31.7746 29.9445 31.1482 30.57C30.5218 31.1955 29.9243 31.5835 29.0881 31.9089C28.4577 32.1546 27.5083 32.4453 25.7622 32.5246C23.8743 32.6114 23.3072 32.6287 18.5244 32.6287C13.7416 32.6287 13.176 32.6114 11.2887 32.5246ZM11.1404 0.164154C9.23382 0.250929 7.93097 0.553069 6.79319 0.995538C5.61485 1.45247 4.61734 2.06548 3.62054 3.06011C2.62374 4.05474 2.01193 5.05323 1.55473 6.23086C1.11199 7.36868 0.809671 8.67003 0.722843 10.5755C0.634582 12.484 0.61438 13.0942 0.61438 17.955C0.61438 22.8159 0.634582 23.426 0.722843 25.3345C0.809671 27.2402 1.11199 28.5414 1.55473 29.6792C2.01193 30.8561 2.62388 31.8557 3.62054 32.8499C4.61719 33.8441 5.61485 34.4563 6.79319 34.9145C7.93312 35.357 9.23382 35.6591 11.1404 35.7459C13.0511 35.8327 13.6606 35.8543 18.5244 35.8543C23.3882 35.8543 23.9987 35.8341 25.9083 35.7459C27.8151 35.6591 29.1171 35.357 30.2556 34.9145C31.4332 34.4563 32.4314 33.8446 33.4282 32.8499C34.425 31.8553 35.0355 30.8561 35.494 29.6792C35.9368 28.5414 36.2405 27.24 36.3259 25.3345C36.4127 23.4246 36.4329 22.8159 36.4329 17.955C36.4329 13.0942 36.4127 12.484 36.3259 10.5755C36.2391 8.66988 35.9368 7.36796 35.494 6.23086C35.0355 5.05395 34.4234 4.05631 33.4282 3.06011C32.433 2.06391 31.4332 1.45247 30.257 0.995538C29.1171 0.553069 27.8149 0.249497 25.9097 0.164154C24.0001 0.0773779 23.3896 0.0557556 18.5258 0.0557556C13.662 0.0557556 13.0511 0.075946 11.1404 0.164154Z" fill="url(#paint1_radial_108_201)"/>
<defs>
<radialGradient id="paint0_radial_108_201" cx="0" cy="0" r="1" gradientUnits="userSpaceOnUse" gradientTransform="translate(5.37328 36.0234) scale(46.76 46.732)">
<stop offset="0.09" stop-color="#FA8F21"/>
<stop offset="0.78" stop-color="#D82D7E"/>
</radialGradient>
<radialGradient id="paint1_radial_108_201" cx="0" cy="0" r="1" gradientUnits="userSpaceOnUse" gradientTransform="translate(22.3376 37.6272) scale(36.8533 36.8312)">
<stop offset="0.64" stop-color="#8C3AAA" stop-opacity="0"/>
<stop offset="1" stop-color="#8C3AAA"/>
</radialGradient>
</defs>
</svg>
