<svg width="58" height="58" viewBox="0 0 58 58" fill="none" xmlns="http://www.w3.org/2000/svg">
<g clip-path="url(#clip0_184_563)">
<path d="M49.9001 31.8384C49.8947 32.3388 49.6921 32.8168 49.3364 33.1687C48.9806 33.5206 48.5004 33.718 48 33.718C47.4997 33.718 47.0195 33.5206 46.6637 33.1687C46.308 32.8168 46.1054 32.3388 46.1 31.8384V14.75C46.1054 14.2496 46.308 13.7716 46.6637 13.4197C47.0195 13.0678 47.4997 12.8704 48 12.8704C48.5004 12.8704 48.9806 13.0678 49.3364 13.4197C49.6921 13.7716 49.8947 14.2496 49.9001 14.75V31.8384ZM49.237 43.7312C48.9433 43.9825 41.9049 49.8887 29 49.8887C16.0953 49.8887 9.05712 43.9823 8.76344 43.7309C8.38091 43.4029 8.14432 42.9364 8.1057 42.434C8.06707 41.9315 8.22958 41.4343 8.55748 41.0517C8.88468 40.6697 9.35005 40.4331 9.8515 40.3937C10.3529 40.3544 10.8495 40.5156 11.2323 40.842C11.3438 40.9355 17.6289 46.0884 29.0002 46.0884C40.5142 46.0884 46.7021 40.8983 46.7633 40.846C47.5584 40.1631 48.7601 40.2548 49.4425 41.0519C49.7705 41.4345 49.9331 41.9317 49.8946 42.4341C49.8561 42.9366 49.6195 43.4031 49.237 43.7312ZM8.09993 14.75C8.10534 14.2496 8.30791 13.7716 8.66365 13.4197C9.01938 13.0678 9.49957 12.8704 9.99996 12.8704C10.5004 12.8704 10.9805 13.0678 11.3363 13.4197C11.692 13.7716 11.8946 14.2496 11.9 14.75V31.8384C11.8946 32.3388 11.692 32.8168 11.3363 33.1687C10.9805 33.5206 10.5004 33.718 9.99996 33.718C9.49957 33.718 9.01938 33.5206 8.66365 33.1687C8.30791 32.8168 8.10534 32.3388 8.09993 31.8384V14.75ZM17.6002 10.9499C17.6079 10.4511 17.8114 9.97523 18.1669 9.62516C18.5223 9.27509 19.0012 9.07887 19.5001 9.07887C19.9991 9.07887 20.478 9.27509 20.8334 9.62516C21.1889 9.97523 21.3924 10.4511 21.4001 10.9499V36.333C21.3924 36.8318 21.1889 37.3077 20.8334 37.6577C20.478 38.0078 19.9991 38.204 19.5001 38.204C19.0012 38.204 18.5223 38.0078 18.1669 37.6577C17.8114 37.3077 17.6079 36.8318 17.6002 36.333V10.9499ZM27.1001 9.9885C27.1 9.73899 27.1492 9.49191 27.2446 9.26139C27.3401 9.03087 27.4801 8.82141 27.6565 8.64498C27.8329 8.46855 28.0424 8.3286 28.2729 8.23313C28.5034 8.13766 28.7505 8.08854 29 8.08857C29.2495 8.08851 29.4966 8.13761 29.7272 8.23307C29.9577 8.32853 30.1672 8.46847 30.3437 8.6449C30.5201 8.82134 30.6601 9.0308 30.7556 9.26134C30.851 9.49188 30.9002 9.73897 30.9001 9.9885V37.5384C30.8947 38.0388 30.6922 38.5168 30.3364 38.8687C29.9807 39.2206 29.5005 39.418 29.0001 39.418C28.4997 39.418 28.0195 39.2206 27.6638 38.8687C27.3081 38.5168 27.1055 38.0388 27.1001 37.5384V9.9885ZM36.6001 10.9499C36.6078 10.4511 36.8113 9.97523 37.1668 9.62516C37.5223 9.27509 38.0012 9.07887 38.5001 9.07887C38.999 9.07887 39.4779 9.27509 39.8334 9.62516C40.1888 9.97523 40.3924 10.4511 40.4 10.9499V36.333C40.3924 36.8318 40.1888 37.3077 39.8334 37.6577C39.4779 38.0078 38.999 38.204 38.5001 38.204C38.0012 38.204 37.5223 38.0078 37.1668 37.6577C36.8113 37.3077 36.6078 36.8318 36.6001 36.333V10.9499ZM50.375 0.5H7.625C3.69 0.5 0.5 3.69 0.5 7.625V50.375C0.5 54.3098 3.69 57.5 7.625 57.5H50.375C54.31 57.5 57.5 54.3098 57.5 50.375V7.625C57.5 3.69 54.31 0.5 50.375 0.5Z" fill="#257AF9"/>
</g>
<defs>
<clipPath id="clip0_184_563">
<rect width="57" height="57" fill="white" transform="translate(0.5 0.5)"/>
</clipPath>
</defs>
</svg>
