<svg width="39" height="37" viewBox="0 0 39 37" fill="none" xmlns="http://www.w3.org/2000/svg">
<path fill-rule="evenodd" clip-rule="evenodd" d="M19.3001 0.877663C29.8929 0.877663 38.4801 7.75389 38.4801 16.2361C38.4801 19.1989 37.4316 21.9652 35.6167 24.3114C35.5268 24.4449 35.4095 24.5925 35.2615 24.7555L35.2503 24.7677C34.6303 25.5094 33.9322 26.2058 33.1645 26.8486C27.8605 31.7511 19.1303 37.5879 17.9781 36.6874C16.9764 35.9047 19.6278 32.0761 16.5688 31.4389C16.3554 31.4144 16.1426 31.3881 15.9315 31.3582L15.9275 31.358V31.3577C6.94305 30.0813 0.120239 23.7968 0.120239 16.2361C0.119962 7.75389 8.70725 0.877663 19.3001 0.877663Z" fill="#3ACE01"/>
<path fill-rule="evenodd" clip-rule="evenodd" d="M8.17241 21.1342H12.0407C12.5909 21.1342 13.041 20.684 13.041 20.1338V20.0503C13.041 19.5001 12.5909 19.05 12.0407 19.05H9.25615V12.7146C9.25615 12.1644 8.8061 11.7143 8.25586 11.7143H8.17241C7.62217 11.7143 7.17212 12.1644 7.17212 12.7146V20.1336C7.17212 20.684 7.62217 21.1342 8.17241 21.1342ZM32.1424 16.4838V16.4004C32.1424 15.8501 31.6922 15.4001 31.142 15.4001H28.3575V13.8162H31.142C31.6922 13.8162 32.1424 13.3662 32.1424 12.8159V12.7325C32.1424 12.1822 31.6922 11.7322 31.142 11.7322H27.2737C26.7234 11.7322 26.2734 12.1822 26.2734 12.7325V20.1515C26.2734 20.7017 26.7234 21.1519 27.2737 21.1519H31.142C31.6922 21.1519 32.1424 20.7017 32.1424 20.1515V20.068C32.1424 19.5178 31.6922 19.0677 31.142 19.0677H28.3575V17.4838H31.142C31.6922 17.4841 32.1424 17.0339 32.1424 16.4838ZM24.7032 20.8359L24.7035 20.8355C24.8886 20.6489 24.9925 20.3967 24.9927 20.1339V12.7149C24.9927 12.1647 24.5427 11.7146 23.9923 11.7146H23.9088C23.3586 11.7146 22.9085 12.1647 22.9085 12.7149V17.0699L19.2929 12.2204C19.1202 11.9189 18.795 11.7146 18.4244 11.7146H18.341C17.7907 11.7146 17.3405 12.1647 17.3405 12.7149V20.1339C17.3405 20.6841 17.7906 21.1343 18.341 21.1343H18.4244C18.9746 21.1343 19.4247 20.6841 19.4247 20.1339V15.6974L23.0663 20.6713C23.0887 20.7061 23.1132 20.7396 23.1397 20.7715L23.1398 20.7717C23.2398 20.9082 23.3767 21.0017 23.5292 21.0589C23.6464 21.1073 23.7746 21.1342 23.9087 21.1342H23.9921C24.1552 21.1343 24.3157 21.0942 24.4595 21.0174C24.5595 20.9698 24.6438 20.9083 24.7032 20.8359ZM14.8487 21.1342H14.9321C15.4823 21.1342 15.9324 20.684 15.9324 20.1338V12.7148C15.9324 12.1645 15.4823 11.7145 14.9321 11.7145H14.8487C14.2984 11.7145 13.8482 12.1645 13.8482 12.7148V20.1338C13.8482 20.684 14.2984 21.1342 14.8487 21.1342Z" fill="white"/>
</svg>
