<svg width="37" height="36" viewBox="0 0 37 36" fill="none" xmlns="http://www.w3.org/2000/svg">
<path d="M18.3001 0.0487061C8.21466 0.0487061 0.394287 7.43934 0.394287 17.4174C0.394287 22.6369 2.53403 27.1492 6.01672 30.2648C6.30769 30.5244 6.48675 30.8915 6.4957 31.2854L6.59418 34.4727C6.60135 34.7072 6.66602 34.9363 6.78249 35.14C6.89897 35.3437 7.06369 35.5156 7.26217 35.6407C7.46066 35.7658 7.68683 35.8403 7.92082 35.8575C8.15481 35.8747 8.38945 35.8342 8.60411 35.7395L12.1584 34.1728C12.4583 34.0385 12.7986 34.0161 13.1164 34.1011C14.7503 34.5488 16.4872 34.7905 18.3001 34.7905C28.3856 34.7905 36.206 27.3999 36.206 17.4218C36.206 7.44382 28.3856 0.0487061 18.3001 0.0487061Z" fill="url(#paint0_radial_108_193)"/>
<path d="M7.54767 22.4981L12.8075 14.154C13.0054 13.8399 13.2662 13.5702 13.5736 13.3619C13.8809 13.1537 14.2282 13.0114 14.5933 12.9441C14.9584 12.8768 15.3335 12.8859 15.6949 12.9709C16.0563 13.0559 16.3962 13.2148 16.6931 13.4378L20.8786 16.5758C21.0654 16.7157 21.2927 16.7909 21.5262 16.7901C21.7596 16.7893 21.9864 16.7125 22.1723 16.5713L27.8216 12.2829C28.5736 11.7099 29.5584 12.6141 29.0571 13.4154L23.7927 21.7551C23.5949 22.0692 23.334 22.3389 23.0267 22.5472C22.7193 22.7554 22.3721 22.8977 22.007 22.965C21.6419 23.0323 21.2667 23.0232 20.9053 22.9382C20.5439 22.8532 20.204 22.6942 19.9072 22.4713L15.7217 19.3333C15.5348 19.1934 15.3075 19.1182 15.0741 19.119C14.8407 19.1198 14.6139 19.1966 14.428 19.3378L8.7787 23.6262C8.02665 24.1992 7.04183 23.2994 7.54767 22.4981Z" fill="white"/>
<defs>
<radialGradient id="paint0_radial_108_193" cx="0" cy="0" r="1" gradientUnits="userSpaceOnUse" gradientTransform="translate(6.39274 35.8604) scale(39.3928 39.3928)">
<stop stop-color="#0099FF"/>
<stop offset="0.6" stop-color="#A033FF"/>
<stop offset="0.9" stop-color="#FF5280"/>
<stop offset="1" stop-color="#FF7061"/>
</radialGradient>
</defs>
</svg>
