<svg width="43" height="43" viewBox="0 0 43 43" fill="none" xmlns="http://www.w3.org/2000/svg">
<g clip-path="url(#clip0_646_634)">
<path d="M42.7061 21.1841C42.7061 32.7786 33.2804 42.1775 21.6538 42.1775C18.0084 42.1775 14.5794 41.2538 11.5896 39.6278C5.04317 36.0677 0.601562 29.1434 0.601562 21.1841C0.601562 9.59001 10.027 0.190918 21.6536 0.190918C33.2804 0.190918 42.7061 9.59001 42.7061 21.1841Z" fill="#20B276"/>
<path d="M30.0526 27.1581C27.8246 29.4471 25.1207 30.5926 21.9415 30.5926C20.0011 30.5926 18.1983 30.2652 16.5083 29.3139L16.488 41.5027L16.3278 41.4597L16.2287 41.4344L16.1117 41.3708L16.0565 41.2713L16.0057 41.159L16.0621 41.0886L10.4867 34.4614L10.4883 18.7954C10.4883 15.5312 11.6022 12.7589 13.8304 10.478C16.0581 8.19691 18.7619 7.05664 21.9415 7.05664C25.1207 7.05664 27.8244 8.20097 30.0526 10.4905C32.2803 12.7796 33.3946 15.5578 33.3946 18.8245C33.3946 22.0916 32.2803 24.8691 30.0526 27.1581ZM25.7997 14.8567C24.7419 13.7688 23.4557 13.2251 21.9415 13.2251C20.4267 13.2251 19.1406 13.7688 18.0831 14.8567C17.0252 15.9446 16.4963 17.2669 16.4963 18.8248C16.4963 20.3822 17.025 21.7046 18.0831 22.7923C19.1406 23.8805 20.4267 24.4245 21.9415 24.4245C23.4557 24.4245 24.7419 23.8805 25.7997 22.7923C26.8575 21.7046 27.3865 20.3822 27.3865 18.8248C27.3865 17.2669 26.8575 15.9444 25.7997 14.8567Z" fill="#147F52"/>
<path d="M29.6133 26.725C27.3852 29.015 24.6812 30.1605 21.5018 30.1605C19.5613 30.1605 17.7464 29.6846 16.0564 28.7332L16.0546 41.4348C16.0546 41.4348 15.6433 41.3219 15.108 41.1495C14.976 41.107 14.8427 41.0614 14.7031 41.0123C14.6367 40.9887 14.6043 40.9749 14.5359 40.9552C14.3608 40.9051 14.1388 40.8079 13.9677 40.7416C13.3928 40.5183 12.927 40.3057 12.9158 40.3005C12.9046 40.295 11.259 39.5123 11.0735 39.3967C10.9073 39.2932 10.7594 39.2121 10.6326 39.1214C10.592 39.0925 10.5614 39.0718 10.523 39.0455C10.2216 38.8389 10.0531 38.7202 10.0531 38.7202L10.0481 18.3601C10.0481 15.0946 11.162 12.3215 13.3904 10.04C15.6184 7.75814 18.3222 6.61768 21.5019 6.61768C24.6814 6.61768 27.3852 7.76236 29.6136 10.0525C31.8415 12.3424 32.956 15.1214 32.956 18.3889C32.9556 21.6566 31.8413 24.4352 29.6133 26.725ZM25.3602 14.4198C24.3022 13.3316 23.0163 12.7877 21.5016 12.7877C19.9868 12.7877 18.7006 13.3316 17.643 14.4198C16.5851 15.508 16.0563 16.8307 16.0563 18.3889C16.0563 19.947 16.5851 21.2698 17.643 22.3577C18.7006 23.4465 19.9868 23.9905 21.5016 23.9905C23.0161 23.9905 24.3022 23.4465 25.3602 22.3577C26.4179 21.2698 26.9472 19.947 26.9472 18.3889C26.9472 16.8307 26.4179 15.508 25.3602 14.4198Z" fill="white"/>
</g>
<defs>
<clipPath id="clip0_646_634">
<rect width="42.1045" height="42" fill="white" transform="translate(0.601562 0.184082)"/>
</clipPath>
</defs>
</svg>
