<svg width="26" height="29" viewBox="0 0 26 29" fill="none" xmlns="http://www.w3.org/2000/svg">
<path d="M22.3644 6.07778C22.3418 5.94202 22.2286 5.85152 22.1155 5.85152C22.0024 5.85152 20.0112 5.80626 20.0112 5.80626C20.0112 5.80626 18.3368 4.17714 18.1784 4.01875C18.0201 3.86037 17.6807 3.90562 17.5675 3.95087C17.5675 3.95087 17.2507 4.04138 16.7303 4.19977C16.6398 3.90562 16.5041 3.56622 16.323 3.20419C15.7348 2.07285 14.8523 1.46193 13.8115 1.46193C13.7436 1.46193 13.6757 1.46193 13.5852 1.48456C13.5626 1.43931 13.5173 1.41668 13.4947 1.37143C13.0422 0.873638 12.4539 0.647371 11.7525 0.669998C10.3949 0.715251 9.03725 1.6882 7.95117 3.43046C7.18186 4.6523 6.59356 6.19092 6.41255 7.39013C4.8513 7.86529 3.76522 8.2047 3.7426 8.22732C2.95066 8.47622 2.92803 8.49884 2.83753 9.24552C2.76965 9.81119 0.687988 25.763 0.687988 25.763L17.9748 28.7498L25.4642 26.8944C25.4416 26.8717 22.387 6.21354 22.3644 6.07778ZM15.8705 4.47129C15.4632 4.58442 15.0107 4.74281 14.5355 4.87857C14.5355 4.19977 14.445 3.22682 14.1283 2.41226C15.1465 2.6159 15.6442 3.76986 15.8705 4.47129ZM13.6078 5.17271C12.7028 5.44424 11.7072 5.76101 10.7116 6.05516C10.9831 4.9917 11.5262 3.92825 12.1597 3.22682C12.4086 2.97792 12.748 2.68378 13.1327 2.50276C13.54 3.2947 13.6305 4.40341 13.6078 5.17271ZM11.7751 1.57507C12.0919 1.57507 12.3634 1.64295 12.5896 1.77871C12.2276 1.98235 11.8656 2.25387 11.5262 2.6159C10.6664 3.54359 10.0102 4.9917 9.73868 6.37193C8.92411 6.62082 8.10955 6.86972 7.36287 7.09599C7.83803 4.92382 9.67079 1.64295 11.7751 1.57507Z" fill="#95BF47"/>
<path d="M22.1155 5.85152C22.0024 5.85152 20.0112 5.80626 20.0112 5.80626C20.0112 5.80626 18.3368 4.17714 18.1784 4.01875C18.1106 3.95087 18.0429 3.92825 17.9523 3.90563V28.7271L25.4418 26.8717C25.4418 26.8717 22.3872 6.21355 22.3646 6.05517C22.3419 5.94203 22.2286 5.85152 22.1155 5.85152Z" fill="#5E8E3E"/>
<path d="M13.789 9.69807L12.9292 12.9563C12.9292 12.9563 11.9563 12.5038 10.8023 12.5943C9.1053 12.7074 9.1053 13.7709 9.1053 14.0424C9.19581 15.4905 13.0197 15.8073 13.246 19.2239C13.4044 21.9165 11.8205 23.7493 9.53521 23.885C6.77475 24.066 5.25876 22.4369 5.25876 22.4369L5.84705 19.948C5.84705 19.948 7.36304 21.1019 8.58489 21.0114C9.37682 20.9662 9.67097 20.31 9.64834 19.8575C9.53521 17.9568 6.41272 18.07 6.20908 14.9475C6.05069 12.3228 7.77032 9.65281 11.5716 9.42655C13.0423 9.31341 13.789 9.69807 13.789 9.69807Z" fill="white"/>
</svg>
