<svg width="39" height="38" viewBox="0 0 39 38" fill="none" xmlns="http://www.w3.org/2000/svg">
<mask id="mask0_274_212" style="mask-type:luminance" maskUnits="userSpaceOnUse" x="2" y="2" width="35" height="34">
<path d="M36.3926 2H2.39258V36H36.3926V2Z" fill="white"/>
</mask>
<g mask="url(#mask0_274_212)">
<path d="M24.4421 4.09359C23.9253 2.50266 22.2165 1.63207 20.6258 2.14914C19.0349 2.66594 18.1643 4.37471 18.6814 5.96539L26.5127 30.0604C27.0505 31.5467 28.6559 32.3818 30.197 31.9384C31.8045 31.4756 32.7844 29.7683 32.2714 28.1896L24.4421 4.09359Z" fill="#DFA22F"/>
<path d="M12.3066 8.03647C11.7896 6.44568 10.0809 5.57508 8.49027 6.09188C6.8992 6.60882 6.02846 8.31745 6.54567 9.90838L14.3772 34.0036C14.9148 35.4897 16.5204 36.3251 18.0615 35.8811C19.6689 35.4186 20.6487 33.7113 20.1357 32.1323L12.3066 8.03647Z" fill="#3CB187"/>
<path d="M34.2995 24.0493C35.8905 23.5325 36.7609 21.824 36.244 20.2329C35.7272 18.6422 34.0184 17.7715 32.4278 18.2885L8.33269 26.1201C6.84644 26.6576 6.01134 28.263 6.4548 29.8041C6.9175 31.4115 8.62481 32.3915 10.2035 31.8785L34.2995 24.0493Z" fill="#CE1E5B"/>
<path d="M13.3542 30.8547L19.113 28.9836L17.2416 23.2241L11.4824 25.0961L13.3542 30.8547Z" fill="#392538"/>
<path d="M25.4891 26.9119C27.6663 26.2047 29.69 25.5471 31.2481 25.0408L29.3764 19.2802L23.6172 21.1521L25.4891 26.9119Z" fill="#BB242A"/>
<path d="M30.3562 11.9142C31.947 11.3974 32.8176 9.68881 32.3008 8.09774C31.784 6.50709 30.0752 5.63648 28.4843 6.15328L4.3891 13.985C2.903 14.5223 2.06774 16.1278 2.51161 17.6689C2.97407 19.2762 4.68138 20.2561 6.26035 19.7432L30.3562 11.9142Z" fill="#72C5CD"/>
<path d="M9.40999 18.7202C10.9783 18.2106 13.0004 17.5535 15.1698 16.8489C14.4626 14.6714 13.8049 12.6477 13.2986 11.0894L7.53809 12.9615L9.40999 18.7202Z" fill="#248C73"/>
<path d="M21.5448 14.7774L27.3048 12.9057C26.6809 10.9855 26.057 9.06529 25.433 7.14514L19.6729 9.01732L21.5448 14.7774Z" fill="#62803A"/>
</g>
</svg>
