<svg width="29" height="29" viewBox="0 0 29 29" fill="none" xmlns="http://www.w3.org/2000/svg">
<g clip-path="url(#clip0_575_1045)">
<path d="M20.6353 0.749756C25.0535 0.749756 28.6353 4.33148 28.6353 8.74976V20.7498C28.6353 25.168 25.0535 28.7498 20.6353 28.7498H8.63525C4.21698 28.7498 0.635254 25.168 0.635254 20.7498V8.74976C0.635254 4.33148 4.21698 0.749756 8.63525 0.749756H20.6353Z" fill="#4353FF"/>
<path d="M19.5984 12.4819C19.5984 12.4819 18.1774 16.9339 18.0724 17.3119C18.0304 16.9409 16.9944 8.93988 16.9944 8.93988C14.5724 8.93988 13.2844 10.6619 12.5984 12.4819C12.5984 12.4819 10.8694 16.9479 10.7294 17.3189C10.7224 16.9689 10.4634 12.5239 10.4634 12.5239C10.3164 10.2909 8.27944 8.93988 6.62744 8.93988L8.61544 21.0569C11.1494 21.0499 12.5144 19.3349 13.2284 17.5079C13.2284 17.5079 14.7474 13.5669 14.8104 13.3919C14.8244 13.5599 15.9024 21.0569 15.9024 21.0569C18.4434 21.0569 19.8154 19.4539 20.5504 17.6969L24.1134 8.93988C21.6004 8.93988 20.2774 10.6549 19.5984 12.4819Z" fill="white"/>
</g>
<defs>
<clipPath id="clip0_575_1045">
<rect width="28" height="28" fill="white" transform="translate(0.635254 0.749756)"/>
</clipPath>
</defs>
</svg>
