<svg width="38" height="38" viewBox="0 0 38 38" fill="none" xmlns="http://www.w3.org/2000/svg">
<path d="M0.898682 37.1715L3.53076 27.3935C1.40805 23.5844 0.73365 19.1396 1.6313 14.8747C2.52895 10.6097 4.93844 6.81063 8.41764 4.17465C11.8968 1.53866 16.2123 0.242548 20.5723 0.52415C24.9322 0.805753 29.0441 2.64618 32.1534 5.70771C35.2627 8.76924 37.1609 12.8465 37.4996 17.1913C37.8383 21.5362 36.5949 25.8571 33.9974 29.3613C31.3999 32.8654 27.6227 35.3178 23.3588 36.2682C19.0949 37.2187 14.6304 36.6036 10.7845 34.5358L0.898682 37.1715ZM11.2612 30.8768L11.8726 31.2385C14.6582 32.8854 17.9119 33.567 21.1264 33.1769C24.3409 32.7868 27.3358 31.347 29.6443 29.0819C31.9528 26.8168 33.4453 23.8537 33.8891 20.6542C34.333 17.4547 33.7033 14.1986 32.0982 11.3933C30.4931 8.58802 28.0027 6.39116 25.0152 5.14506C22.0276 3.89896 18.7107 3.67361 15.5814 4.50413C12.452 5.33465 9.68601 7.17439 7.71436 9.73666C5.74271 12.2989 4.67619 15.4398 4.681 18.6698C4.67838 21.3479 5.42095 23.9743 6.82604 26.2565L7.20945 26.887L5.73798 32.3445L11.2612 30.8768Z" fill="#00D95F"/>
<path fill-rule="evenodd" clip-rule="evenodd" d="M26.0999 21.1805C25.7415 20.8922 25.3219 20.6892 24.8729 20.5871C24.424 20.485 23.9576 20.4865 23.5093 20.5913C22.8358 20.8704 22.4005 21.9247 21.9653 22.4518C21.8735 22.5782 21.7387 22.6668 21.586 22.7011C21.4334 22.7353 21.2735 22.7129 21.1363 22.6379C18.6704 21.6745 16.6034 19.9079 15.2711 17.6249C15.1575 17.4824 15.1037 17.3015 15.1211 17.1203C15.1385 16.9391 15.2257 16.7716 15.3644 16.6533C15.8498 16.1739 16.2062 15.5803 16.4006 14.9271C16.4438 14.2067 16.2783 13.4891 15.924 12.8599C15.65 11.9778 15.1286 11.1923 14.4214 10.5963C14.0566 10.4326 13.6522 10.3778 13.2569 10.4383C12.8615 10.4988 12.4922 10.6721 12.1934 10.9374C11.6748 11.3837 11.2631 11.9405 10.9887 12.5665C10.7143 13.1926 10.5842 13.8721 10.608 14.555C10.6096 14.9385 10.6583 15.3203 10.7531 15.692C10.9937 16.5849 11.3637 17.4381 11.8515 18.2244C12.2034 18.8267 12.5874 19.4098 13.0017 19.9712C14.3484 21.8151 16.0412 23.3807 17.9861 24.5811C18.9621 25.1911 20.0052 25.687 21.0949 26.0592C22.2268 26.571 23.4765 26.7674 24.7114 26.6277C25.4149 26.5214 26.0816 26.2443 26.6526 25.8208C27.2236 25.3972 27.6814 24.8402 27.9859 24.1987C28.1648 23.8111 28.2191 23.3779 28.1414 22.9583C27.9548 22.1004 26.8046 21.5939 26.0999 21.1805Z" fill="#00D95F"/>
</svg>
