<svg width="48" height="47" viewBox="0 0 48 47" fill="none" xmlns="http://www.w3.org/2000/svg">
<path d="M42.4889 0.0727539H5.51114C2.95836 0.0727539 0.888916 2.14219 0.888916 4.69498V41.6728C0.888916 44.2255 2.95836 46.295 5.51114 46.295H42.4889C45.0417 46.295 47.1111 44.2255 47.1111 41.6728V4.69498C47.1111 2.14219 45.0417 0.0727539 42.4889 0.0727539Z" fill="white"/>
<path d="M26.9139 16.5229C26.2005 16.8795 25.8914 17.5454 25.8914 19.3528C25.8914 19.3528 26.2481 18.996 26.8188 18.782C27.2349 18.6274 27.5322 18.4253 27.7462 18.2707C28.3645 17.807 28.4596 17.2481 28.4596 16.2731C28.4477 16.2731 27.4727 16.2137 26.9139 16.5229Z" fill="#181818"/>
<path d="M22.3116 16.9397C21.6933 17.451 21.5388 18.3309 21.5388 18.3309L19.5413 25.9883L17.9005 19.7221C17.7459 19.0562 17.4367 18.2358 16.973 17.6651C16.4023 16.9397 15.2133 16.8922 15.0706 16.8922C14.9636 16.8922 13.7865 16.9397 13.1682 17.6651C12.7046 18.2358 12.3954 19.0562 12.2408 19.7221L10.6951 25.9883L8.69761 18.3309C8.69761 18.3309 8.54305 17.5105 7.92477 16.9397C6.94977 16.0598 5.51111 16.2739 5.51111 16.2739L9.31589 30.6017C9.31589 30.6017 10.5525 30.7087 11.1707 30.3996C11.9911 29.9834 12.4073 29.6862 12.871 27.7243C13.3347 25.9764 14.5712 20.8874 14.6664 20.5306C14.714 20.3761 14.821 19.9124 15.1301 19.9124C15.4392 19.9124 15.5462 20.3285 15.5938 20.5306C15.7008 20.8874 16.9255 25.9764 17.3892 27.7243C17.9005 29.6743 18.2572 29.9834 19.0895 30.3996C19.7077 30.7087 20.9443 30.6017 20.9443 30.6017L24.7253 16.2739C24.7253 16.2739 23.2866 16.0717 22.3116 16.9397Z" fill="#181818"/>
<path d="M28.4482 19.353C28.4482 19.353 28.1867 19.7097 27.6754 20.0189C27.3187 20.221 27.0096 20.328 26.6528 20.5301C26.0346 20.8393 25.88 21.1484 25.88 21.6121V31.3265C25.88 31.3265 26.855 31.4336 27.4733 31.1244C28.2937 30.7083 28.4482 30.304 28.4482 28.5561V19.353Z" fill="#181818"/>
<path d="M37.8313 23.4669L42.6586 16.3209C42.6586 16.3209 40.6611 15.9641 39.6267 16.8916C38.9609 17.4623 38.295 18.5325 38.295 18.5325L36.5472 21.1008C36.4402 21.2553 36.345 21.3624 36.1905 21.3624C36.0359 21.3624 35.8814 21.2078 35.8338 21.1008L34.086 18.5325C34.086 18.5325 33.3725 17.5099 32.7543 16.8916C31.7318 15.9641 29.7224 16.3209 29.7224 16.3209L34.3951 23.455L29.6154 30.5892C29.6154 30.5892 31.7199 30.8508 32.7543 29.9234C33.4201 29.3526 34.0384 28.3776 34.0384 28.3776L35.7862 25.8093C35.8932 25.6547 35.9884 25.5477 36.1429 25.5477C36.2975 25.5477 36.4521 25.7023 36.4996 25.8093L38.2474 28.3776C38.2474 28.3776 38.9133 29.3526 39.5316 29.9234C40.5541 30.8508 42.6111 30.5892 42.6111 30.5892L37.8313 23.4669Z" fill="#181818"/>
</svg>
