<svg width="65" height="39" viewBox="0 0 65 39" fill="none" xmlns="http://www.w3.org/2000/svg">
<path fill-rule="evenodd" clip-rule="evenodd" d="M6.07009 0.626465H58.6525C59.4427 0.626465 60.2254 0.782189 60.9554 1.08467C61.6856 1.38723 62.349 1.83057 62.9076 2.38958C63.4664 2.9485 63.9095 3.6121 64.2117 4.34233C64.5139 5.07257 64.6693 5.85522 64.669 6.64555V26.7066C64.669 27.4966 64.5133 28.2789 64.2109 29.0086C63.9085 29.7384 63.4654 30.4016 62.9066 30.9601C62.3479 31.5185 61.6846 31.9615 60.9547 32.2635C60.2247 32.5656 59.4424 32.7209 58.6525 32.7206H39.7942L42.3753 39.0652L30.983 32.7206H6.0625C4.4686 32.7186 2.94059 32.0841 1.81399 30.9566C0.687393 29.8291 0.0542593 28.3005 0.0535889 26.7066V6.64555C0.0535889 5.04963 0.687393 3.51905 1.81563 2.3903C2.94388 1.26155 4.47417 0.627111 6.07009 0.626465Z" fill="#7D57A4"/>
<path d="M3.30584 6.07605C3.50485 5.82736 3.75601 5.62536 4.04161 5.48433C4.32722 5.34323 4.64028 5.26666 4.95876 5.2598C6.29969 5.16651 7.06934 5.79885 7.26771 7.15682C8.09503 12.6647 8.98074 17.3404 9.92501 21.1835L15.7127 10.1778C16.2366 9.18437 16.8985 8.65881 17.6987 8.60114C18.8583 8.5198 19.583 9.25812 19.8729 10.8161C20.4176 13.8969 21.2546 16.9188 22.3726 19.8409C23.0676 13.1377 24.228 8.29179 25.8538 5.30301C26.0107 4.96782 26.2561 4.68173 26.5634 4.47561C26.8708 4.26949 27.2286 4.15116 27.5983 4.13331C28.2001 4.0838 28.7976 4.27078 29.2638 4.65459C29.5019 4.8343 29.6974 5.06409 29.8367 5.32772C29.9761 5.59144 30.0556 5.88245 30.07 6.18032C30.1126 6.61995 30.024 7.06232 29.8157 7.45179C28.785 9.36408 27.9374 12.5436 27.2728 16.9902C26.6167 21.2827 26.3743 24.6402 26.5455 27.0627C26.6056 27.6565 26.499 28.2553 26.2378 28.7919C26.111 29.0628 25.9134 29.2944 25.6659 29.4622C25.4184 29.6301 25.1301 29.7279 24.8316 29.7456C24.1348 29.7964 23.4406 29.4684 22.7413 28.7665C20.2866 26.249 18.337 22.5033 16.8927 17.5294C15.1973 20.9199 13.9259 23.4561 13.0782 25.1377C11.5271 28.1214 10.198 29.6515 9.09099 29.7277C8.37215 29.7786 7.76016 29.1751 7.25495 27.9172C5.89875 24.4639 4.44418 17.7828 2.89135 7.87389C2.82997 7.56196 2.83517 7.2405 2.9066 6.93075C2.97803 6.62092 3.11408 6.32967 3.30584 6.07605Z" fill="white"/>
<path d="M60.0663 10.2256C59.63 9.4381 59.0256 8.75649 58.296 8.22906C57.5664 7.70164 56.7296 7.34149 55.8451 7.17406C55.3735 7.07439 54.8929 7.02326 54.4108 7.02148C51.8815 7.02148 49.8149 8.33786 48.2112 10.9707C46.8455 13.2095 46.1346 15.7863 46.1591 18.4087C46.1591 20.443 46.5829 22.1866 47.4305 23.6395C47.8664 24.4277 48.471 25.1101 49.2011 25.6376C49.9314 26.1651 50.769 26.5247 51.6544 26.691C52.1248 26.7928 52.6046 26.8448 53.086 26.846C55.6408 26.846 57.7065 25.5297 59.2831 22.8969C60.6487 20.6421 61.3601 18.0517 61.3377 15.4157C61.3377 13.3813 60.9139 11.6513 60.0663 10.2256ZM56.7351 17.5517C56.3739 19.2809 55.7044 20.5838 54.7262 21.4602C53.9514 22.157 53.2411 22.4409 52.5952 22.3121C51.9493 22.1832 51.4314 21.6136 51.0415 20.6032C50.7427 19.8368 50.585 19.0227 50.5762 18.2002C50.5737 17.5493 50.6384 16.9 50.7694 16.2625C51.0211 15.1344 51.4948 14.0677 52.1629 13.1245C53.0411 11.8344 53.9582 11.2928 54.9144 11.4996C55.5603 11.6301 56.0773 12.1981 56.4655 13.2033C56.7633 13.9691 56.9201 14.7824 56.9283 15.6039C56.9317 16.2581 56.8669 16.9109 56.7351 17.5517Z" fill="white"/>
<path d="M43.5168 10.2256C43.0804 9.4381 42.4761 8.75649 41.7465 8.22906C41.0169 7.70164 40.18 7.34149 39.2955 7.17406C38.8239 7.07439 38.3433 7.02326 37.8613 7.02148C35.3302 7.02148 33.2646 8.33786 31.6642 10.9707C30.2966 13.2088 29.5847 15.7859 29.6095 18.4087C29.6095 20.443 30.0334 22.1866 30.881 23.6395C31.3162 24.4283 31.9206 25.111 32.6509 25.6386C33.3811 26.1662 34.2192 26.5256 35.1048 26.691C35.5752 26.7928 36.0551 26.8448 36.5364 26.846C39.0929 26.846 41.1594 25.5297 42.736 22.8969C44.1064 20.6432 44.8239 18.0533 44.8085 15.4157C44.8085 13.3813 44.3847 11.6513 43.5371 10.2256H43.5168ZM40.1855 17.5517C39.8244 19.2843 39.1531 20.5889 38.1715 21.4653C37.3951 22.162 36.6848 22.446 36.0406 22.3172C35.3964 22.1883 34.8802 21.617 34.4919 20.6032C34.1932 19.8368 34.0355 19.0227 34.0266 18.2002C34.0241 17.5493 34.0889 16.9 34.2198 16.2625C34.4738 15.1352 34.9473 14.0688 35.6133 13.1245C36.4881 11.8378 37.4053 11.2979 38.3648 11.5047C39.0107 11.6352 39.5269 12.2032 39.9134 13.2084C40.2119 13.974 40.3696 14.7873 40.3788 15.6089C40.3814 16.2598 40.3166 16.9092 40.1855 17.5467V17.5517Z" fill="white"/>
</svg>
