<svg width="28" height="29" viewBox="0 0 28 29" fill="none" xmlns="http://www.w3.org/2000/svg">
<g clip-path="url(#clip0_575_1051)">
<path d="M13.9933 0.736725C6.2575 0.736725 -0.0135498 7.00777 -0.0135498 14.7435C-0.0135498 22.4793 6.2575 28.7504 13.9933 28.7504C21.729 28.7504 28.0001 22.4793 28.0001 14.7435C28.0001 7.00777 21.729 0.736725 13.9933 0.736725ZM13.9933 1.57713C15.7711 1.57713 17.4953 1.92515 19.1179 2.61147C19.8979 2.94137 20.6503 3.34977 21.3541 3.82523C22.0515 4.29636 22.7073 4.83746 23.3033 5.43348C23.8993 6.02949 24.4404 6.68531 24.9116 7.38264C25.3871 8.08648 25.7954 8.83885 26.1253 9.61884C26.8117 11.2415 27.1596 12.9657 27.1596 14.7435C27.1596 16.5214 26.8117 18.2456 26.1253 19.8682C25.7954 20.6482 25.3871 21.4006 24.9116 22.1044C24.4404 22.8018 23.8993 23.4576 23.3033 24.0536C22.7073 24.6496 22.0515 25.1907 21.3541 25.6618C20.6503 26.1373 19.8979 26.5457 19.1179 26.8756C17.4953 27.5619 15.7711 27.91 13.9933 27.91C12.2155 27.91 10.4912 27.5619 8.86856 26.8756C8.08858 26.5457 7.3362 26.1373 6.63236 25.6618C5.93503 25.1907 5.27922 24.6496 4.6832 24.0536C4.08718 23.4576 3.54609 22.8018 3.07495 22.1044C2.59949 21.4006 2.1911 20.6482 1.86119 19.8682C1.17487 18.2456 0.826859 16.5214 0.826859 14.7435C0.826859 12.9657 1.17487 11.2415 1.86119 9.61884C2.1911 8.83885 2.59949 8.08648 3.07495 7.38264C3.54609 6.68531 4.08718 6.02949 4.6832 5.43348C5.27922 4.83746 5.93503 4.29636 6.63236 3.82523C7.3362 3.34977 8.08858 2.94137 8.86856 2.61147C10.4912 1.92515 12.2155 1.57713 13.9933 1.57713Z" fill="#5F6974"/>
<path d="M24.2355 9.14363C24.2856 9.51535 24.314 9.91416 24.314 10.3438C24.314 11.5278 24.0921 12.8593 23.4261 14.5244L19.8611 24.8319C23.3313 22.8088 25.665 19.0492 25.665 14.7432C25.665 12.7138 25.1464 10.806 24.2355 9.14363ZM14.1977 15.7641L10.6951 25.9403C11.7411 26.2481 12.847 26.4159 13.9927 26.4159C15.3519 26.4159 16.6559 26.1813 17.869 25.7541C17.8378 25.7042 17.809 25.6512 17.7852 25.5933L14.1977 15.7641ZM21.8725 14.1545C21.8725 12.7115 21.3541 11.7128 20.9102 10.9355C20.3185 9.97358 19.7636 9.15977 19.7636 8.19788C19.7636 7.1251 20.5772 6.12636 21.7237 6.12636C21.7756 6.12636 21.8246 6.13258 21.8749 6.13577C19.7982 4.233 17.0314 3.07126 13.9927 3.07126C9.91461 3.07126 6.32724 5.16367 4.24009 8.33209C4.51414 8.34079 4.77236 8.34625 4.99129 8.34625C6.2119 8.34625 8.10227 8.19788 8.10227 8.19788C8.73115 8.16103 8.80548 9.08544 8.1769 9.15977C8.1769 9.15977 7.54437 9.23385 6.84111 9.27066L11.0915 21.9139L13.6462 14.2532L11.8278 9.27066C11.1989 9.23385 10.6035 9.15977 10.6035 9.15977C9.97432 9.12262 10.048 8.16103 10.6776 8.19788C10.6776 8.19788 12.6048 8.34625 13.7516 8.34625C14.9722 8.34625 16.8629 8.19788 16.8629 8.19788C17.4921 8.16103 17.5662 9.08544 16.9373 9.15977C16.9373 9.15977 16.3041 9.23385 15.6014 9.27066L19.8197 21.8176L21.0238 18.0021C21.5588 16.3346 21.8725 15.1532 21.8725 14.1545ZM2.3203 14.7432C2.3203 19.3631 5.00499 23.356 8.89902 25.2478L3.33102 9.99295C2.68336 11.4445 2.3203 13.0509 2.3203 14.7432Z" fill="#5F6974"/>
</g>
<defs>
<clipPath id="clip0_575_1051">
<rect width="28" height="28" fill="white" transform="translate(0 0.749756)"/>
</clipPath>
</defs>
</svg>
