<svg width="38" height="38" viewBox="0 0 38 38" fill="none" xmlns="http://www.w3.org/2000/svg">
<path d="M33.9333 0.517578H4.06659C2.00472 0.517578 0.333252 2.18905 0.333252 4.25091V34.1176C0.333252 36.1795 2.00472 37.8509 4.06659 37.8509H33.9333C35.9951 37.8509 37.6666 36.1795 37.6666 34.1176V4.25091C37.6666 2.18905 35.9951 0.517578 33.9333 0.517578Z" fill="#FF4F00"/>
<path d="M5.58503 21.0845L5.57971 21.0676L8.94559 17.9862V16.5015H3.54561V17.9862H6.77102L6.77634 18.0004L3.44336 21.0845V22.5692H8.99982V21.0845H5.58503Z" fill="#FFFDF9"/>
<path d="M12.3138 16.3604C11.6909 16.3604 11.1833 16.4542 10.7909 16.6421C10.4254 16.8059 10.1175 17.0757 9.90725 17.4165C9.70602 17.7596 9.5797 18.1413 9.53648 18.5367L11.175 18.767C11.2343 18.4179 11.3528 18.1705 11.5306 18.0246C11.7328 17.8722 11.9818 17.7951 12.2347 17.8068C12.5672 17.8068 12.8084 17.8957 12.9584 18.0735C13.1069 18.2513 13.1824 18.4976 13.1824 18.8221V18.9839H11.607C10.8051 18.9839 10.2291 19.1617 9.87878 19.5174C9.5285 19.873 9.35364 20.3423 9.35425 20.9256C9.35425 21.523 9.52911 21.9675 9.87878 22.2591C10.2285 22.5507 10.6682 22.6956 11.1981 22.6939C11.8554 22.6939 12.361 22.4677 12.7148 22.0155C12.9238 21.7376 13.073 21.4195 13.1531 21.0812H13.2126L13.4385 22.5658H14.9232V18.8061C14.9232 18.0291 14.7184 17.4272 14.3088 17.0004C13.8993 16.5737 13.2343 16.3604 12.3138 16.3604ZM12.8331 20.9949C12.5974 21.1914 12.2889 21.2892 11.9049 21.2892C11.5884 21.2892 11.3685 21.2338 11.2452 21.1229C11.1852 21.0705 11.1374 21.0055 11.1053 20.9325C11.0732 20.8595 11.0575 20.7803 11.0595 20.7006C11.0559 20.6254 11.0678 20.5504 11.0942 20.4799C11.1206 20.4094 11.1611 20.3451 11.2133 20.2908C11.2695 20.238 11.336 20.1971 11.4086 20.1706C11.4812 20.1442 11.5584 20.1327 11.6355 20.137H13.1851V20.2392C13.1882 20.3838 13.1581 20.527 13.0971 20.6581C13.0361 20.7891 12.9457 20.9043 12.8331 20.9949Z" fill="#FFFDF9"/>
<path d="M23.8979 16.5015H22.1438V22.5701H23.8979V16.5015Z" fill="#FFFDF9"/>
<path d="M34.2611 16.5015C33.7657 16.5015 33.3751 16.6764 33.0894 17.026C32.8843 17.2773 32.7285 17.6486 32.6218 18.14H32.5702L32.3409 16.5015H30.8428V22.5692H32.5969V19.4575C32.5969 19.0651 32.6888 18.7644 32.8725 18.5552C33.0562 18.3459 33.3953 18.2414 33.8896 18.2414H34.5554V16.5015H34.2611Z" fill="#FFFDF9"/>
<path d="M29.0961 16.6994C28.6866 16.4558 28.17 16.3344 27.5465 16.335C26.565 16.335 25.7969 16.6144 25.2421 17.1733C24.6874 17.7323 24.41 18.5027 24.41 19.4848C24.3959 20.0786 24.5256 20.6669 24.7878 21.1998C25.0279 21.6746 25.4019 22.0686 25.8635 22.3333C26.3283 22.6017 26.8809 22.7363 27.5216 22.7369C28.0758 22.7369 28.5387 22.6516 28.9103 22.4809C29.2597 22.3275 29.564 22.0873 29.794 21.7829C30.0131 21.4843 30.1758 21.148 30.2741 20.7908L28.7627 20.3676C28.6991 20.5999 28.5767 20.8118 28.4071 20.9829C28.2364 21.1535 27.9504 21.2389 27.5491 21.2389C27.072 21.2389 26.7165 21.1022 26.4824 20.8291C26.3125 20.6317 26.2058 20.3499 26.1588 19.9845H30.2972C30.3141 19.8138 30.323 19.6706 30.323 19.5551V19.1772C30.333 18.6696 30.2281 18.1663 30.0162 17.7049C29.8179 17.2846 29.4972 16.9342 29.0961 16.6994ZM27.4959 17.7814C28.2071 17.7814 28.6104 18.1313 28.7059 18.8313H26.1899C26.2298 18.5978 26.3266 18.3777 26.4716 18.1903C26.7022 17.9171 27.0436 17.7808 27.4959 17.7814Z" fill="#FFFDF9"/>
<path d="M23.0418 14.0556C22.9098 14.0511 22.7783 14.0732 22.655 14.1205C22.5317 14.1679 22.4193 14.2395 22.3243 14.3313C22.2306 14.4237 22.1571 14.5348 22.1087 14.6573C22.0601 14.7797 22.0375 14.9109 22.0424 15.0425C22.0377 15.175 22.0603 15.3071 22.1088 15.4303C22.1575 15.5537 22.2309 15.6657 22.3246 15.7594C22.4184 15.8531 22.5305 15.9265 22.6539 15.9749C22.7773 16.0234 22.9094 16.0459 23.0418 16.041C23.1734 16.046 23.3046 16.0235 23.4271 15.9749C23.5496 15.9264 23.6606 15.853 23.7531 15.7592C23.8448 15.6644 23.9165 15.5521 23.9638 15.4289C24.0109 15.3057 24.0327 15.1743 24.0279 15.0425C24.0339 14.9115 24.0126 14.7807 23.9652 14.6583C23.9179 14.536 23.8456 14.4249 23.7528 14.3321C23.6601 14.2393 23.5491 14.1669 23.4268 14.1195C23.3045 14.072 23.1728 14.0497 23.0418 14.0556Z" fill="#FFFDF9"/>
<path d="M19.4181 16.335C18.8207 16.335 18.3406 16.5226 17.9779 16.8977C17.7094 17.1757 17.5123 17.5906 17.3867 18.1424H17.3307L17.1013 16.5039H15.6033V24.3132H17.3574V21.0966H17.4213C17.4749 21.3111 17.5499 21.5196 17.6454 21.719C17.7938 22.0437 18.0371 22.3159 18.3433 22.4995C18.6608 22.6728 19.0183 22.7589 19.3799 22.7493C20.1143 22.7493 20.6734 22.4633 21.0575 21.8915C21.4416 21.3195 21.6336 20.5214 21.6336 19.4973C21.6336 18.508 21.4478 17.7337 21.0762 17.1742C20.7046 16.6147 20.1519 16.335 19.4181 16.335ZM19.596 20.7321C19.3915 21.0284 19.0714 21.1766 18.6358 21.1766C18.4562 21.1849 18.2772 21.1503 18.1136 21.0756C17.95 21.001 17.8066 20.8884 17.6952 20.7472C17.4682 20.4622 17.355 20.0718 17.3556 19.5763V19.4608C17.3556 18.9576 17.4687 18.5723 17.6952 18.305C17.9216 18.0377 18.2351 17.9056 18.6358 17.9086C19.0791 17.9086 19.4012 18.0493 19.6021 18.3308C19.8031 18.6124 19.9035 19.005 19.9035 19.5088C19.9047 20.0297 19.8028 20.4375 19.5978 20.7321H19.596Z" fill="#FFFDF9"/>
</svg>
