<svg width="200" height="284" viewBox="0 0 200 284" fill="none" xmlns="http://www.w3.org/2000/svg">
<g clip-path="url(#clip0_401_813)">
<path d="M93.6731 176.499C93.6731 176.499 134.17 74.1345 53.1641 33.5951L65.9652 16.5391C65.9652 16.5391 144.821 65.5952 93.6731 176.499Z" fill="#FF6DAA"/>
<path d="M93.6729 179.399C93.2935 179.399 92.9029 179.325 92.5353 179.166C91.0921 178.549 90.4016 176.896 90.9791 175.435C92.5862 171.352 129.536 75.0576 51.8681 36.189C51.0982 35.8037 50.5381 35.1016 50.3456 34.2637C50.2467 33.8501 50.2406 33.4198 50.3277 33.0036C50.4148 32.5875 50.593 32.1958 50.8495 31.8567L63.6506 14.795C64.5504 13.5947 66.2199 13.2834 67.4932 14.076C68.3081 14.5799 147.928 65.7767 96.3043 177.717C95.8176 178.776 94.7706 179.399 93.6729 179.399ZM57.5328 32.5988C99.0603 55.0173 107.594 94.1182 106.372 126.067C116.027 61.5634 76.4514 27.8138 66.599 20.5203L57.5328 32.5988Z" fill="#25252D"/>
<path d="M114.996 204.229C114.996 204.229 149.088 159.426 193.852 182.903L187.457 202.1C187.457 202.1 168.261 172.23 114.996 204.229Z" fill="#FF6DAA"/>
<path d="M114.997 207.129C114.199 207.129 113.407 206.8 112.841 206.166C111.913 205.13 111.85 203.578 112.694 202.474C113.599 201.279 135.336 173.198 167.56 173.198C176.869 173.198 186.167 175.599 195.2 180.339C196.456 180.995 197.05 182.474 196.603 183.821L190.208 203.017C189.851 204.077 188.923 204.841 187.82 204.977C186.654 205.096 185.619 204.603 185.019 203.669C184.724 203.222 177.345 192.332 158.929 192.332C146.655 192.332 132.377 197.174 116.491 206.716C116.039 206.986 115.523 207.129 114.997 207.129ZM158.929 186.533C173.151 186.533 181.867 192.293 186.292 196.426L190.31 184.376C182.817 180.808 175.177 178.997 167.56 178.997C152.597 178.997 139.864 185.967 130.956 192.819C141.007 188.64 150.367 186.533 158.929 186.533Z" fill="#25252D"/>
<path d="M85.7719 247.911L51.4883 207.712L54.7143 202.428L91.5555 245.793L85.7719 247.911Z" fill="#FF9554"/>
<path d="M64.1312 255.856L39.4229 227.464L48.4322 212.707L80.2033 249.956L64.1312 255.856Z" fill="#FFE645"/>
<path d="M63.2542 259.265L35.8408 227.769L48.042 207.786L85.1099 251.247L63.2542 259.266V259.265ZM43.0053 227.163L65.0083 252.448L75.2969 248.671L48.8229 217.633L43.0053 227.163Z" fill="#25252D"/>
<path d="M52.6766 260.058L33.209 237.639L36.3895 232.441L58.5398 257.906L52.6766 260.058Z" fill="#FF9554"/>
<path d="M29.2253 268.665L20.7139 258.099L30.1644 242.622L47.0858 262.108L29.2253 268.665Z" fill="#FFE645"/>
<path d="M28.2744 272.103L17.1768 258.331L29.7573 237.736L52.032 263.382L28.2744 272.103ZM24.2508 257.872L30.176 265.228L42.1397 260.834L30.5722 247.515L24.2508 257.872Z" fill="#25252D"/>
<path d="M17.6349 263.139L23.713 270.687L9.93848 275.738L17.6349 263.139Z" fill="#FF9554"/>
<path d="M97.1248 243.75L57.7705 197.429L66.0217 183.906L111.918 238.319L97.1248 243.75Z" fill="#FFE645"/>
<path d="M96.2254 247.17L54.2051 197.712L65.6424 178.962L116.802 239.616L96.2251 247.17H96.2254ZM61.3356 197.151L98.0244 240.335L107.034 237.028L66.4012 188.85L61.3361 197.151L61.3356 197.151Z" fill="#25252D"/>
<path d="M3.39679 284C2.54813 284 1.71604 283.626 1.15569 282.942C0.775184 282.475 0.548527 281.903 0.506954 281.302C0.465382 280.702 0.610941 280.103 0.923572 279.589L63.1866 177.649C63.4262 177.257 63.7554 176.928 64.147 176.689C64.5386 176.45 64.9814 176.307 65.4389 176.273C65.8966 176.234 66.3568 176.307 66.7805 176.484C67.2042 176.662 67.5788 176.939 67.8725 177.292L118.817 237.696C119.118 238.052 119.329 238.475 119.431 238.929C119.533 239.384 119.525 239.856 119.405 240.307C119.286 240.758 119.059 241.174 118.745 241.519C118.43 241.864 118.038 242.128 117.6 242.289L4.39271 283.824C4.07369 283.941 3.73652 284.001 3.39679 284ZM66.0386 184.104L10.2047 275.517L111.72 238.268L66.0386 184.104Z" fill="#25252D"/>
<path d="M95.3591 248.869C94.5386 248.869 93.7236 248.523 93.152 247.85L53.3675 201.025C52.332 199.801 52.4792 197.973 53.6957 196.936C54.9294 195.9 56.7461 196.047 57.7817 197.27L97.5662 244.095C98.6018 245.313 98.4548 247.142 97.2377 248.178C96.7133 248.624 96.0474 248.869 95.3591 248.869ZM84.4479 253.547C84.0288 253.546 83.6147 253.455 83.2339 253.28C82.8531 253.105 82.5144 252.85 82.241 252.533L45.9712 209.989C44.9297 208.766 45.0767 206.937 46.2938 205.9C47.499 204.87 49.3324 205 50.3795 206.223L86.6496 248.767C87.6911 249.985 87.5438 251.814 86.327 252.855C85.8033 253.303 85.1368 253.548 84.4481 253.546L84.4479 253.547ZM63.3843 262.125C62.575 262.125 61.7716 261.791 61.2 261.134L35.0543 231.099C34.0016 229.888 34.1263 228.059 35.3372 227.005C36.5428 225.952 38.3708 226.088 39.4232 227.288L65.5689 257.323C66.6216 258.53 66.4968 260.364 65.2859 261.412C64.76 261.873 64.0839 262.127 63.3843 262.125ZM51.6811 266.044C50.8718 266.044 50.0681 265.71 49.4965 265.047L28.8177 241.247C27.7653 240.041 27.8954 238.206 29.1009 237.158C30.3062 236.111 32.1398 236.23 33.1869 237.442L53.8657 261.242C54.9181 262.454 54.788 264.283 53.5825 265.336C53.0547 265.794 52.3795 266.045 51.6811 266.044ZM27.4935 273.847C26.6505 273.847 25.8074 273.479 25.2356 272.771L15.4905 260.67C14.4887 259.419 14.6868 257.595 15.9317 256.593C17.1653 255.585 19.0049 255.783 20.0064 257.029L29.7518 269.13C30.7533 270.376 30.5555 272.199 29.3103 273.207C28.796 273.623 28.1545 273.848 27.4935 273.847Z" fill="#25252D"/>
<path d="M144.708 95.1714H135.789C134.187 95.1714 132.892 93.8746 132.892 92.2724C132.892 90.6702 134.187 89.373 135.789 89.373H144.708C146.31 89.373 147.605 90.6693 147.605 92.2721C147.605 93.8749 146.31 95.1714 144.708 95.1714Z" fill="#25252D"/>
<path d="M167.526 95.1714H158.607C157.005 95.1714 155.709 93.8746 155.709 92.2724C155.709 90.6702 157.005 89.373 158.607 89.373H167.526C169.127 89.373 170.423 90.6693 170.423 92.2721C170.423 93.8749 169.127 95.1714 167.526 95.1714Z" fill="#25252D"/>
<path d="M151.669 89.2028C151.288 89.203 150.911 89.1281 150.56 88.9825C150.208 88.8369 149.889 88.6234 149.62 88.3541C149.35 88.0849 149.137 87.7652 148.992 87.4134C148.846 87.0616 148.771 86.6845 148.771 86.3037V77.3732C148.771 75.771 150.067 74.4741 151.669 74.4741C153.271 74.4741 154.567 75.771 154.567 77.3732V86.3037C154.567 87.9062 153.271 89.2028 151.669 89.2028Z" fill="#25252D"/>
<path d="M151.669 112.024C151.288 112.024 150.911 111.949 150.56 111.804C150.208 111.658 149.889 111.444 149.62 111.175C149.35 110.906 149.137 110.586 148.992 110.234C148.846 109.883 148.771 109.506 148.771 109.125V100.2C148.771 98.5976 150.067 97.3008 151.669 97.3008C153.271 97.3008 154.567 98.5976 154.567 100.2V109.125C154.567 110.727 153.271 112.024 151.669 112.024Z" fill="#25252D"/>
<path d="M173.807 134.862H164.877C164.496 134.862 164.119 134.787 163.768 134.641C163.416 134.496 163.097 134.282 162.828 134.013C162.559 133.744 162.345 133.424 162.2 133.072C162.054 132.72 161.979 132.343 161.979 131.962C161.979 130.36 163.275 129.063 164.877 129.063H173.807C175.409 129.063 176.705 130.36 176.705 131.962C176.705 133.565 175.409 134.861 173.807 134.861V134.862Z" fill="#25252D"/>
<path d="M196.603 134.862H187.683C187.303 134.862 186.926 134.787 186.574 134.641C186.223 134.496 185.903 134.282 185.634 134.013C185.365 133.744 185.152 133.424 185.006 133.072C184.861 132.72 184.786 132.343 184.786 131.962C184.786 130.36 186.082 129.063 187.683 129.063H196.603C198.204 129.063 199.5 130.36 199.5 131.962C199.5 133.565 198.204 134.861 196.603 134.861V134.862Z" fill="#25252D"/>
<path d="M180.746 128.904C180.365 128.905 179.989 128.83 179.637 128.684C179.285 128.539 178.966 128.325 178.697 128.056C178.428 127.787 178.214 127.467 178.069 127.115C177.923 126.763 177.848 126.386 177.849 126.005V117.064C177.849 115.461 179.144 114.165 180.746 114.165C182.348 114.165 183.643 115.461 183.643 117.064V126.005C183.643 127.608 182.348 128.904 180.746 128.904Z" fill="#25252D"/>
<path d="M180.746 151.708C180.365 151.708 179.989 151.633 179.637 151.488C179.285 151.342 178.966 151.128 178.697 150.859C178.428 150.59 178.214 150.27 178.069 149.918C177.923 149.566 177.848 149.189 177.849 148.809V139.884C177.849 138.281 179.144 136.985 180.746 136.985C182.348 136.985 183.643 138.282 183.643 139.884V148.809C183.643 150.411 182.348 151.708 180.746 151.708V151.708Z" fill="#25252D"/>
<path d="M139.433 230.08H130.503C128.901 230.08 127.605 228.783 127.605 227.18C127.605 225.578 128.901 224.281 130.503 224.281H139.433C141.035 224.281 142.33 225.578 142.33 227.18C142.33 227.561 142.256 227.938 142.11 228.29C141.965 228.642 141.751 228.962 141.482 229.231C141.213 229.5 140.894 229.714 140.542 229.859C140.19 230.005 139.813 230.08 139.433 230.08Z" fill="#25252D"/>
<path d="M162.24 230.08H153.31C152.929 230.08 152.552 230.005 152.201 229.859C151.849 229.714 151.529 229.5 151.26 229.231C150.991 228.962 150.778 228.642 150.632 228.29C150.487 227.938 150.412 227.561 150.412 227.18C150.412 225.578 151.708 224.281 153.31 224.281H162.24C163.841 224.281 165.137 225.578 165.137 227.18C165.137 228.783 163.841 230.08 162.24 230.08Z" fill="#25252D"/>
<path d="M146.372 224.128C144.77 224.128 143.475 222.831 143.475 221.229V212.298C143.475 210.696 144.77 209.399 146.372 209.399C147.974 209.399 149.269 210.696 149.269 212.298V221.229C149.269 222.831 147.973 224.128 146.372 224.128Z" fill="#25252D"/>
<path d="M146.372 246.96C144.77 246.96 143.475 245.663 143.475 244.061V235.125C143.475 233.523 144.77 232.226 146.372 232.226C147.974 232.226 149.269 233.523 149.269 235.125V244.061C149.269 245.663 147.973 246.96 146.372 246.96Z" fill="#25252D"/>
<path d="M133.151 2.76758L139.014 14.6365L152.11 16.5565L142.636 25.798L144.877 38.8505L133.151 32.684L121.437 38.8505L123.666 25.7977L114.193 16.5565L127.288 14.6368L133.151 2.76758Z" fill="#FFE645"/>
<path d="M144.878 41.7497C144.408 41.7486 143.946 41.634 143.531 41.4156L133.152 35.9623L122.784 41.4156C121.81 41.9251 120.622 41.8459 119.734 41.1946C119.296 40.8765 118.956 40.4422 118.752 39.9408C118.548 39.4395 118.488 38.891 118.579 38.3574L120.554 26.8113L112.173 18.6287C111.785 18.2525 111.511 17.775 111.381 17.2505C111.251 16.726 111.27 16.1756 111.437 15.6616C111.604 15.1468 111.911 14.689 112.324 14.3398C112.737 13.9905 113.24 13.7639 113.775 13.6854L125.365 11.9865L130.554 1.48214C131.528 -0.494047 134.776 -0.494047 135.749 1.48214L140.939 11.9865L152.529 13.6854C153.064 13.7639 153.566 13.9906 153.979 14.3398C154.392 14.689 154.699 15.1469 154.866 15.6616C155.033 16.1755 155.052 16.7259 154.922 17.2504C154.792 17.7749 154.518 18.2524 154.13 18.6287L145.749 26.8057L147.735 38.3577C147.827 38.8913 147.767 39.4398 147.563 39.9412C147.359 40.4426 147.019 40.8769 146.581 41.1949C146.086 41.5558 145.49 41.7501 144.877 41.7497H144.878ZM120.413 18.5722L125.687 23.7196C126.024 24.0475 126.276 24.4522 126.422 24.899C126.568 25.3458 126.603 25.8214 126.525 26.2849L125.28 33.55L131.805 30.1186C132.642 29.671 133.661 29.6769 134.498 30.1186L141.029 33.55L139.779 26.2849C139.7 25.8214 139.736 25.3459 139.882 24.8991C140.028 24.4523 140.28 24.0475 140.616 23.7196L145.891 18.5722L138.596 17.502C138.132 17.4345 137.692 17.2555 137.312 16.9803C136.933 16.7051 136.626 16.342 136.417 15.922L133.152 9.31379L129.886 15.922C129.678 16.3419 129.37 16.705 128.991 16.9802C128.612 17.2554 128.171 17.4344 127.707 17.502L120.413 18.5722H120.413Z" fill="#25252D"/>
<path d="M55.5864 105.047L61.4605 116.922L74.5673 118.83L65.0712 128.078L67.3121 141.13L55.5864 134.975L43.8829 141.13L46.1128 128.078L36.6279 118.83L49.7345 116.922L55.5864 105.047Z" fill="#FF9554"/>
<path d="M43.8824 144.03C43.2827 144.03 42.6825 143.843 42.1789 143.48C41.2906 142.829 40.8379 141.731 41.0245 140.643L42.9997 129.091L34.6069 120.909C34.219 120.531 33.9444 120.053 33.8144 119.527C33.6843 119.002 33.704 118.451 33.8712 117.936C34.038 117.422 34.3453 116.965 34.7584 116.616C35.1715 116.268 35.6738 116.042 36.2084 115.965L47.8099 114.272L52.9882 103.762C53.2279 103.278 53.5982 102.87 54.0571 102.585C54.5161 102.299 55.0456 102.148 55.5859 102.148C56.6894 102.148 57.6966 102.771 58.1833 103.762L63.3841 114.272L74.9855 115.965C75.5202 116.042 76.0225 116.268 76.4356 116.616C76.8487 116.965 77.156 117.422 77.3227 117.936C77.4899 118.451 77.5097 119.002 77.3797 119.527C77.2497 120.053 76.9752 120.531 76.5873 120.909L68.1833 129.091L70.1695 140.643C70.2613 141.176 70.2018 141.724 69.9977 142.224C69.7936 142.725 69.4531 143.158 69.0151 143.475C68.5777 143.792 68.0607 143.981 67.522 144.021C66.9832 144.061 66.444 143.95 65.9646 143.701L55.5859 138.254L45.2293 143.695C44.8148 143.916 44.3521 144.031 43.8824 144.03ZM55.5859 132.076C56.0498 132.076 56.5082 132.189 56.9328 132.41L63.4636 135.835L62.2128 128.57C62.1345 128.106 62.1698 127.63 62.3156 127.182C62.4615 126.734 62.7135 126.328 63.0502 125.999L68.3361 120.852L61.041 119.793C60.5768 119.725 60.1361 119.545 59.7567 119.268C59.3773 118.992 59.0705 118.628 58.8625 118.207L55.5915 111.594L52.3317 118.207C52.1251 118.629 51.8186 118.994 51.4389 119.271C51.0592 119.547 50.6178 119.727 50.153 119.793L42.8522 120.858L48.1325 126.005C48.4698 126.332 48.7224 126.737 48.8683 127.184C49.0142 127.631 49.0491 128.107 48.9699 128.57L47.725 135.835L54.239 132.41C54.6542 132.191 55.1165 132.076 55.5859 132.076Z" fill="#25252D"/>
</g>
<defs>
<clipPath id="clip0_401_813">
<rect width="199" height="284" fill="white" transform="translate(0.5)"/>
</clipPath>
</defs>
</svg>
