<svg width="32" height="32" viewBox="0 0 32 32" fill="none" xmlns="http://www.w3.org/2000/svg">
<path d="M18.0397 25.1494L16.7319 25.1738L11.5172 28.6306C11.4994 28.6435 11.4747 28.6306 11.4747 28.6088V25.1356H8.9275C7.08375 25.1356 5.58969 23.6413 5.58969 21.7978V12.3266C5.58969 10.4831 7.08375 8.98877 8.9275 8.98877H23.0728C24.9163 8.98877 26.4106 10.4831 26.4106 12.3266V21.7978C26.4106 23.6413 24.9163 25.1356 23.0728 25.1356L21.7091 25.1494H18.0397Z" fill="#397D7E" stroke="black" stroke-miterlimit="10"/>
<path d="M12.1669 15.9231C13.2255 15.9231 14.0837 15.0649 14.0837 14.0062C14.0837 12.9476 13.2255 12.0894 12.1669 12.0894C11.1082 12.0894 10.25 12.9476 10.25 14.0062C10.25 15.0649 11.1082 15.9231 12.1669 15.9231Z" fill="#245F60" stroke="black" stroke-miterlimit="10"/>
<path d="M19.8544 15.9231C20.913 15.9231 21.7712 15.0649 21.7712 14.0062C21.7712 12.9476 20.913 12.0894 19.8544 12.0894C18.7957 12.0894 17.9375 12.9476 17.9375 14.0062C17.9375 15.0649 18.7957 15.9231 19.8544 15.9231Z" fill="#245F60" stroke="black" stroke-miterlimit="10"/>
<path d="M26.4753 19.8267V14.4729H27.9278C28.5338 14.4729 29.025 14.9641 29.025 15.5701V18.7298C29.025 19.3357 28.5338 19.827 27.9278 19.827H26.4753V19.8267ZM2.97501 18.7298V15.5701C2.97501 14.9641 3.46626 14.4729 4.07219 14.4729H5.52469V19.827H4.07219C3.46626 19.8267 2.97501 19.3354 2.97501 18.7298ZM20.0581 18.9482C19.7903 20.8704 18.0416 22.3545 15.9231 22.3545C13.8053 22.3545 12.0559 20.8704 11.7881 18.9482H20.0581Z" fill="#245F60" stroke="black" stroke-miterlimit="10"/>
<path d="M15.9231 5.98526C16.647 5.98526 17.2338 5.39848 17.2338 4.67464C17.2338 3.9508 16.647 3.36401 15.9231 3.36401C15.1993 3.36401 14.6125 3.9508 14.6125 4.67464C14.6125 5.39848 15.1993 5.98526 15.9231 5.98526Z" fill="#245F60" stroke="black" stroke-miterlimit="10"/>
<path d="M15.9231 7.6316V5.98535Z" fill="#D9D9D9"/>
<path d="M15.9231 7.6316V5.98535" stroke="black" stroke-miterlimit="10"/>
</svg>
