<svg xmlns="http://www.w3.org/2000/svg" viewBox="0 0 512 512" id="girl">
  <path fill="#4b4b4b" d="M415.14 414.43V166a159.15 159.15 0 0 0-318.29 0v248.43h43.81l10.25-34 11.33 34Z"></path>
  <path fill="#3d3d3d" d="M172 293.88V137.71A139 139 0 0 1 263.62 7.06c-2.53-.12-5.07-.19-7.62-.19A159.16 159.16 0 0 0 96.85 166v248.43h43.81l10.25-34 11.33 34H267a124 124 0 0 1-95-120.55Z"></path>
  <path fill="#cd84f1" d="M256 391.75a113.38 113.38 0 0 0-113.38 113.38h226.75A113.38 113.38 0 0 0 256 391.75Z"></path>
  <path fill="#c56cf0" d="M301.26 409.86a114.06 114.06 0 0 1 18.51 1.53 113.37 113.37 0 0 0-177.15 93.74h46.72a113.39 113.39 0 0 1 111.92-95.27Z"></path>
  <path fill="#eaac9d" d="M220.14 384.81h71.71v50.88h-71.71z"></path>
  <circle cx="386.58" cy="255.5" r="37.5" fill="#eaac9d"></circle>
  <circle cx="125.42" cy="255.5" r="37.5" fill="#eaac9d"></circle>
  <path fill="#ffdcce" d="M389.84 199.06v72a133.85 133.85 0 1 1-267.69 0v-72H322v-60.38s15.7 60.38 67.84 60.38Z"></path>
  <path fill="#ffcabd" d="M172 274.91v-75.85h-49.85v72a133.94 133.94 0 0 0 173.64 127.85 124 124 0 0 1-123.79-124Z"></path>
  <circle cx="212.81" cy="237.38" r="14.74" fill="#fff"></circle>
  <circle cx="299.18" cy="237.38" r="14.74" fill="#fff"></circle>
  <path d="M431 255.28a44.32 44.32 0 0 0-9-26.75V166A166 166 0 0 0 256 0C164.45 0 90 74.47 90 166v62.91a44.23 44.23 0 0 0 0 53.3v132.22a6.88 6.88 0 0 0 6.88 6.87h43.81a6.88 6.88 0 0 0 6.58-4.89l4-13.27 4.48 13.46a6.86 6.86 0 0 0 6.52 4.7h7.67a120.71 120.71 0 0 0-34.17 83.83 6.88 6.88 0 0 0 6.87 6.87h226.74a6.88 6.88 0 0 0 6.87-6.87 120.71 120.71 0 0 0-34.17-83.83h73.07a6.88 6.88 0 0 0 6.87-6.87V281.9a44.17 44.17 0 0 0 8.98-26.62ZM227 428.83v-20a141.06 141.06 0 0 0 58 0v20.05Zm29-30.78a126.92 126.92 0 0 1-127-127v-65.12h193a6.88 6.88 0 0 0 6.87-6.87v-29.37C339.21 185.8 356.36 203 383 205.6v65.48a127.11 127.11 0 0 1-127 126.97Zm140.71-127v-44.7a30.59 30.59 0 0 1-.64 58c.41-4.35.64-8.79.64-13.27ZM256 13.74A152.21 152.21 0 0 1 408.27 166v50.53a44.26 44.26 0 0 0-11.56-4.47v-13a6.88 6.88 0 0 0-6.87-6.88c-46.12 0-60.64-53-61.24-55.24a6.87 6.87 0 0 0-13.52 1.74v53.5H122.15a6.88 6.88 0 0 0-6.87 6.88v13.19a44.31 44.31 0 0 0-11.56 4.56V166C103.72 82.05 172 13.74 256 13.74ZM94.78 255.46a30.87 30.87 0 0 1 20.5-28.87v44.49c0 4.54.23 9 .65 13.49a30.51 30.51 0 0 1-21.15-29.11Zm62.66 122.76a6.88 6.88 0 0 0-13.11.19l-8.78 29.15h-31.83V294.2a44.15 44.15 0 0 0 14.37 5 140.87 140.87 0 0 0 80.37 100.32 118.93 118.93 0 0 0-12.71 8h-18.56Zm55.83 29.33v28.15a6.87 6.87 0 0 0 6.87 6.87h29v55.69h-99.43a107.14 107.14 0 0 1 63.56-90.71Zm49.6 90.71v-55.69h29a6.88 6.88 0 0 0 6.88-6.87v-28.15a107.13 107.13 0 0 1 63.55 90.71Zm63.38-90.7a118.9 118.9 0 0 0-12.8-8.07A141.2 141.2 0 0 0 393.91 299a43.68 43.68 0 0 0 14.36-5v113.56Zm-6.61-189.72-7.13 2.56a21.79 21.79 0 1 0 7.65 11.86l4.12-1.48a6.87 6.87 0 0 0-4.64-12.94Zm-20.46 27.41a7.87 7.87 0 1 1 7.87-7.87 7.88 7.88 0 0 1-7.87 7.87Zm-64.75-7.87a21.58 21.58 0 0 0-35-17l-7.12-2.56a6.87 6.87 0 1 0-4.64 12.94l4.11 1.48a21.61 21.61 0 1 0 42.6 5.12Zm-21.62 7.87a7.87 7.87 0 1 1 7.87-7.87 7.88 7.88 0 0 1-7.87 7.87Zm81.33 70C286 326.48 271.7 333.17 256 333.17s-30-6.69-38.14-17.91a6.87 6.87 0 1 1 11.1-8.1c5.52 7.57 15.88 12.27 27 12.27s21.51-4.7 27-12.27a6.87 6.87 0 1 1 11.11 8.1Z"></path>
</svg>
